{
  "version": "1.1.6",
  "modules": [
    {
      "id": 21,
      "plugin": "Stalys",
      "version": "1.3.1",
      "model": "Blank",
      "params": [],
      "rightModuleId": 53,
      "data": {
        "skin": "hornet"
      },
      "pos": [
        0,
        0
      ]
    },
    {
      "id": 44,
      "plugin": "Fundamental",
      "version": "1.4.0",
      "model": "Scope",
      "params": [
        {
          "id": 0,
          "value": -1.0
        },
        {
          "id": 1,
          "value": 10.0
        },
        {
          "id": 2,
          "value": -1.0
        },
        {
          "id": 3,
          "value": -10.0
        },
        {
          "id": 4,
          "value": 14.0
        },
        {
          "id": 5,
          "value": 0.0
        },
        {
          "id": 6,
          "value": 0.0
        },
        {
          "id": 7,
          "value": 0.0
        }
      ],
      "leftModuleId": 52,
      "data": {
        "lissajous": 0,
        "external": 0
      },
      "pos": [
        33,
        0
      ]
    },
    {
      "id": 52,
      "plugin": "Stalys",
      "version": "1.3.1",
      "model": "Abs",
      "params": [],
      "leftModuleId": 53,
      "rightModuleId": 44,
      "data": {
        "skin": ""
      },
      "pos": [
        27,
        0
      ]
    },
    {
      "id": 53,
      "plugin": "TinyTricks",
      "version": "1.5.0",
      "model": "TTSIN",
      "params": [
        {
          "id": 0,
          "value": 0.0
        },
        {
          "id": 1,
          "value": 0.0
        },
        {
          "id": 2,
          "value": 0.00999999978
        }
      ],
      "leftModuleId": 21,
      "rightModuleId": 52,
      "data": {
        "skin": 0,
        "forcebright": false
      },
      "pos": [
        24,
        0
      ]
    }
  ],
  "cables": [
    {
      "id": 214,
      "outputModuleId": 53,
      "outputId": 0,
      "inputModuleId": 52,
      "inputId": 0,
      "color": "#c9b70e"
    },
    {
      "id": 213,
      "outputModuleId": 53,
      "outputId": 0,
      "inputModuleId": 44,
      "inputId": 1,
      "color": "#0986ad"
    },
    {
      "id": 215,
      "outputModuleId": 52,
      "outputId": 0,
      "inputModuleId": 44,
      "inputId": 0,
      "color": "#0c8e15"
    }
  ]
}