{
  "version": "1.1.6",
  "modules": [
    {
      "id": 21,
      "plugin": "Stalys",
      "version": "1.3.1",
      "model": "Blank",
      "params": [],
      "rightModuleId": 43,
      "data": {
        "skin": "hornet"
      },
      "pos": [
        0,
        0
      ]
    },
    {
      "id": 43,
      "plugin": "Stalys",
      "version": "1.3.1",
      "model": "Function",
      "params": [
        {
          "id": 0,
          "value": 0.460500121
        },
        {
          "id": 1,
          "value": 0.151499853
        },
        {
          "id": 2,
          "value": 0.603000104
        },
        {
          "id": 3,
          "value": 0.390000075
        },
        {
          "id": 4,
          "value": 0.626999795
        },
        {
          "id": 5,
          "value": 0.397000223
        },
        {
          "id": 6,
          "value": 0.0
        },
        {
          "id": 7,
          "value": 0.0
        },
        {
          "id": 8,
          "value": 0.0
        },
        {
          "id": 9,
          "value": 0.0
        },
        {
          "id": 10,
          "value": 0.0
        },
        {
          "id": 11,
          "value": 0.0
        },
        {
          "id": 12,
          "value": 0.0
        },
        {
          "id": 13,
          "value": 0.0
        },
        {
          "id": 14,
          "value": 0.0
        },
        {
          "id": 15,
          "value": 0.0
        }
      ],
      "leftModuleId": 21,
      "rightModuleId": 78,
      "data": {
        "skin": ""
      },
      "pos": [
        24,
        0
      ]
    },
    {
      "id": 44,
      "plugin": "Fundamental",
      "version": "1.4.0",
      "model": "Scope",
      "params": [
        {
          "id": 0,
          "value": 0.0
        },
        {
          "id": 1,
          "value": 0.0
        },
        {
          "id": 2,
          "value": 0.0
        },
        {
          "id": 3,
          "value": 0.0
        },
        {
          "id": 4,
          "value": 6.0
        },
        {
          "id": 5,
          "value": 0.0
        },
        {
          "id": 6,
          "value": 0.0
        },
        {
          "id": 7,
          "value": 0.0
        }
      ],
      "leftModuleId": 78,
      "data": {
        "lissajous": 0,
        "external": 0
      },
      "pos": [
        66,
        0
      ]
    },
    {
      "id": 78,
      "plugin": "Stalys",
      "version": "1.3.1",
      "model": "ABY",
      "params": [],
      "leftModuleId": 43,
      "rightModuleId": 44,
      "data": {
        "skin": ""
      },
      "pos": [
        54,
        0
      ]
    }
  ],
  "cables": [
    {
      "id": 175,
      "outputModuleId": 43,
      "outputId": 3,
      "inputModuleId": 43,
      "inputId": 1,
      "color": "#0986ad"
    },
    {
      "id": 179,
      "outputModuleId": 43,
      "outputId": 6,
      "inputModuleId": 43,
      "inputId": 5,
      "color": "#0986ad"
    },
    {
      "id": 189,
      "outputModuleId": 43,
      "outputId": 10,
      "inputModuleId": 43,
      "inputId": 9,
      "color": "#c91847"
    },
    {
      "id": 307,
      "outputModuleId": 43,
      "outputId": 0,
      "inputModuleId": 78,
      "inputId": 0,
      "color": "#0986ad"
    },
    {
      "id": 308,
      "outputModuleId": 43,
      "outputId": 4,
      "inputModuleId": 78,
      "inputId": 1,
      "color": "#c9b70e"
    },
    {
      "id": 309,
      "outputModuleId": 43,
      "outputId": 10,
      "inputModuleId": 78,
      "inputId": 2,
      "color": "#0c8e15"
    },
    {
      "id": 310,
      "outputModuleId": 78,
      "outputId": 0,
      "inputModuleId": 44,
      "inputId": 0,
      "color": "#c91847"
    }
  ]
}