{
  "version": "1.1.6",
  "modules": [
    {
      "id": 21,
      "plugin": "Stalys",
      "version": "1.3.1",
      "model": "Blank",
      "params": [],
      "rightModuleId": 67,
      "data": {
        "skin": "hornet"
      },
      "pos": [
        0,
        0
      ]
    },
    {
      "id": 44,
      "plugin": "Fundamental",
      "version": "1.4.0",
      "model": "Scope",
      "params": [
        {
          "id": 0,
          "value": -1.0
        },
        {
          "id": 1,
          "value": 7.53000116
        },
        {
          "id": 2,
          "value": -1.0
        },
        {
          "id": 3,
          "value": -9.78999901
        },
        {
          "id": 4,
          "value": 6.0
        },
        {
          "id": 5,
          "value": 0.0
        },
        {
          "id": 6,
          "value": -1.31999993
        },
        {
          "id": 7,
          "value": 0.0
        }
      ],
      "leftModuleId": 62,
      "rightModuleId": 68,
      "data": {
        "lissajous": 0,
        "external": 0
      },
      "pos": [
        46,
        0
      ]
    },
    {
      "id": 62,
      "plugin": "Stalys",
      "version": "1.3.1",
      "model": "DAC",
      "params": [],
      "leftModuleId": 65,
      "rightModuleId": 44,
      "data": {
        "skin": ""
      },
      "pos": [
        40,
        0
      ]
    },
    {
      "id": 65,
      "plugin": "Stalys",
      "version": "1.3.1",
      "model": "ADC",
      "params": [],
      "leftModuleId": 67,
      "rightModuleId": 62,
      "data": {
        "skin": ""
      },
      "pos": [
        34,
        0
      ]
    },
    {
      "id": 67,
      "plugin": "Fundamental",
      "version": "1.4.0",
      "model": "LFO",
      "params": [
        {
          "id": 0,
          "value": 0.0
        },
        {
          "id": 1,
          "value": 1.0
        },
        {
          "id": 2,
          "value": -3.80599976
        },
        {
          "id": 3,
          "value": 0.0
        },
        {
          "id": 4,
          "value": 0.0
        },
        {
          "id": 5,
          "value": 0.5
        },
        {
          "id": 6,
          "value": 0.0
        }
      ],
      "leftModuleId": 21,
      "rightModuleId": 65,
      "pos": [
        24,
        0
      ]
    },
    {
      "id": 68,
      "plugin": "Fundamental",
      "version": "1.4.0",
      "model": "Scope",
      "params": [
        {
          "id": 0,
          "value": -1.0
        },
        {
          "id": 1,
          "value": 7.53000116
        },
        {
          "id": 2,
          "value": -1.0
        },
        {
          "id": 3,
          "value": -9.78999901
        },
        {
          "id": 4,
          "value": 6.0
        },
        {
          "id": 5,
          "value": 0.0
        },
        {
          "id": 6,
          "value": -1.31999993
        },
        {
          "id": 7,
          "value": 0.0
        }
      ],
      "leftModuleId": 44,
      "data": {
        "lissajous": 0,
        "external": 0
      },
      "pos": [
        59,
        0
      ]
    }
  ],
  "cables": [
    {
      "id": 254,
      "outputModuleId": 62,
      "outputId": 0,
      "inputModuleId": 44,
      "inputId": 0,
      "color": "#c9b70e"
    },
    {
      "id": 271,
      "outputModuleId": 65,
      "outputId": 0,
      "inputModuleId": 62,
      "inputId": 0,
      "color": "#c91847"
    },
    {
      "id": 272,
      "outputModuleId": 65,
      "outputId": 1,
      "inputModuleId": 62,
      "inputId": 1,
      "color": "#0986ad"
    },
    {
      "id": 273,
      "outputModuleId": 65,
      "outputId": 2,
      "inputModuleId": 62,
      "inputId": 2,
      "color": "#c9b70e"
    },
    {
      "id": 274,
      "outputModuleId": 65,
      "outputId": 3,
      "inputModuleId": 62,
      "inputId": 3,
      "color": "#0c8e15"
    },
    {
      "id": 275,
      "outputModuleId": 65,
      "outputId": 4,
      "inputModuleId": 62,
      "inputId": 4,
      "color": "#c91847"
    },
    {
      "id": 276,
      "outputModuleId": 65,
      "outputId": 5,
      "inputModuleId": 62,
      "inputId": 5,
      "color": "#0986ad"
    },
    {
      "id": 277,
      "outputModuleId": 65,
      "outputId": 6,
      "inputModuleId": 62,
      "inputId": 6,
      "color": "#c9b70e"
    },
    {
      "id": 278,
      "outputModuleId": 65,
      "outputId": 7,
      "inputModuleId": 62,
      "inputId": 7,
      "color": "#0c8e15"
    },
    {
      "id": 282,
      "outputModuleId": 67,
      "outputId": 0,
      "inputModuleId": 44,
      "inputId": 1,
      "color": "#0c8e15"
    },
    {
      "id": 283,
      "outputModuleId": 67,
      "outputId": 0,
      "inputModuleId": 65,
      "inputId": 0,
      "color": "#c91847"
    },
    {
      "id": 284,
      "outputModuleId": 65,
      "outputId": 4,
      "inputModuleId": 68,
      "inputId": 0,
      "color": "#0986ad"
    },
    {
      "id": 285,
      "outputModuleId": 65,
      "outputId": 5,
      "inputModuleId": 68,
      "inputId": 1,
      "color": "#c9b70e"
    }
  ]
}