{
  "version": "1.1.6",
  "modules": [
    {
      "id": 21,
      "plugin": "Stalys",
      "version": "1.3.1",
      "model": "Blank",
      "params": [],
      "rightModuleId": 56,
      "data": {
        "skin": "hornet"
      },
      "pos": [
        0,
        0
      ]
    },
    {
      "id": 44,
      "plugin": "Fundamental",
      "version": "1.4.0",
      "model": "Scope",
      "params": [
        {
          "id": 0,
          "value": -1.0
        },
        {
          "id": 1,
          "value": 5.04000044
        },
        {
          "id": 2,
          "value": -1.0
        },
        {
          "id": 3,
          "value": -4.88999987
        },
        {
          "id": 4,
          "value": 6.0
        },
        {
          "id": 5,
          "value": 0.0
        },
        {
          "id": 6,
          "value": 0.0
        },
        {
          "id": 7,
          "value": 0.0
        }
      ],
      "leftModuleId": 55,
      "data": {
        "lissajous": 0,
        "external": 0
      },
      "pos": [
        66,
        0
      ]
    },
    {
      "id": 54,
      "plugin": "Stalys",
      "version": "1.3.1",
      "model": "ASR",
      "params": [],
      "leftModuleId": 56,
      "rightModuleId": 55,
      "data": {
        "skin": ""
      },
      "pos": [
        54,
        0
      ]
    },
    {
      "id": 55,
      "plugin": "modular80",
      "version": "1.0.2",
      "model": "Nosering",
      "params": [
        {
          "id": 0,
          "value": -2.79999995
        },
        {
          "id": 1,
          "value": 2.63000035
        },
        {
          "id": 2,
          "value": 8.10599995
        },
        {
          "id": 3,
          "value": 0.0
        }
      ],
      "leftModuleId": 54,
      "rightModuleId": 44,
      "pos": [
        60,
        0
      ]
    },
    {
      "id": 56,
      "plugin": "Stalys",
      "version": "1.3.1",
      "model": "Function",
      "params": [
        {
          "id": 0,
          "value": 0.458499908
        },
        {
          "id": 1,
          "value": 0.414000094
        },
        {
          "id": 2,
          "value": 0.0
        },
        {
          "id": 3,
          "value": 0.0
        },
        {
          "id": 4,
          "value": 0.0
        },
        {
          "id": 5,
          "value": 0.0
        },
        {
          "id": 6,
          "value": 0.0
        },
        {
          "id": 7,
          "value": 0.0
        },
        {
          "id": 8,
          "value": 0.0
        },
        {
          "id": 9,
          "value": 0.0
        },
        {
          "id": 10,
          "value": 0.0
        },
        {
          "id": 11,
          "value": 0.0
        },
        {
          "id": 12,
          "value": 0.0
        },
        {
          "id": 13,
          "value": 0.0
        },
        {
          "id": 14,
          "value": 0.0
        },
        {
          "id": 15,
          "value": 0.0
        }
      ],
      "leftModuleId": 21,
      "rightModuleId": 54,
      "data": {
        "skin": ""
      },
      "pos": [
        24,
        0
      ]
    }
  ],
  "cables": [
    {
      "id": 217,
      "outputModuleId": 56,
      "outputId": 3,
      "inputModuleId": 56,
      "inputId": 1,
      "color": "#c9b70e"
    },
    {
      "id": 218,
      "outputModuleId": 56,
      "outputId": 3,
      "inputModuleId": 54,
      "inputId": 0,
      "color": "#0c8e15"
    },
    {
      "id": 219,
      "outputModuleId": 56,
      "outputId": 3,
      "inputModuleId": 55,
      "inputId": 2,
      "color": "#c91847"
    },
    {
      "id": 220,
      "outputModuleId": 55,
      "outputId": 0,
      "inputModuleId": 54,
      "inputId": 1,
      "color": "#0986ad"
    },
    {
      "id": 221,
      "outputModuleId": 54,
      "outputId": 0,
      "inputModuleId": 44,
      "inputId": 0,
      "color": "#c9b70e"
    },
    {
      "id": 222,
      "outputModuleId": 54,
      "outputId": 7,
      "inputModuleId": 44,
      "inputId": 1,
      "color": "#0c8e15"
    }
  ]
}