{
  "version": "1.1.6",
  "modules": [
    {
      "id": 21,
      "plugin": "Stalys",
      "version": "1.3.1",
      "model": "Blank",
      "params": [],
      "rightModuleId": 81,
      "data": {
        "skin": "hornet"
      },
      "pos": [
        0,
        0
      ]
    },
    {
      "id": 44,
      "plugin": "Fundamental",
      "version": "1.4.0",
      "model": "Scope",
      "params": [
        {
          "id": 0,
          "value": -1.0
        },
        {
          "id": 1,
          "value": 7.17000008
        },
        {
          "id": 2,
          "value": -1.0
        },
        {
          "id": 3,
          "value": -10.0
        },
        {
          "id": 4,
          "value": 6.0
        },
        {
          "id": 5,
          "value": 0.0
        },
        {
          "id": 6,
          "value": 0.0
        },
        {
          "id": 7,
          "value": 0.0
        }
      ],
      "leftModuleId": 80,
      "data": {
        "lissajous": 0,
        "external": 0
      },
      "pos": [
        68,
        0
      ]
    },
    {
      "id": 80,
      "plugin": "Stalys",
      "version": "1.3.1",
      "model": "Clip",
      "params": [
        {
          "id": 0,
          "value": 2.0
        },
        {
          "id": 1,
          "value": 0.149253726
        },
        {
          "id": 2,
          "value": 0.149253726
        },
        {
          "id": 3,
          "value": 0.149253726
        },
        {
          "id": 4,
          "value": 0.149253726
        },
        {
          "id": 5,
          "value": 0.149253726
        },
        {
          "id": 6,
          "value": 0.149253726
        },
        {
          "id": 7,
          "value": 0.149253726
        }
      ],
      "leftModuleId": 83,
      "rightModuleId": 44,
      "data": {
        "skin": ""
      },
      "pos": [
        56,
        0
      ]
    },
    {
      "id": 81,
      "plugin": "Fundamental",
      "version": "1.4.0",
      "model": "LFO",
      "params": [
        {
          "id": 0,
          "value": 0.0
        },
        {
          "id": 1,
          "value": 1.0
        },
        {
          "id": 2,
          "value": -2.63599944
        },
        {
          "id": 3,
          "value": 0.0
        },
        {
          "id": 4,
          "value": 0.0
        },
        {
          "id": 5,
          "value": 0.5
        },
        {
          "id": 6,
          "value": 0.0
        }
      ],
      "leftModuleId": 21,
      "rightModuleId": 82,
      "pos": [
        24,
        0
      ]
    },
    {
      "id": 82,
      "plugin": "Fundamental",
      "version": "1.4.0",
      "model": "LFO",
      "params": [
        {
          "id": 0,
          "value": 0.0
        },
        {
          "id": 1,
          "value": 1.0
        },
        {
          "id": 2,
          "value": 1.0
        },
        {
          "id": 3,
          "value": 0.0
        },
        {
          "id": 4,
          "value": 0.0
        },
        {
          "id": 5,
          "value": 0.5
        },
        {
          "id": 6,
          "value": 0.0
        }
      ],
      "leftModuleId": 81,
      "rightModuleId": 83,
      "pos": [
        34,
        0
      ]
    },
    {
      "id": 83,
      "plugin": "Stalys",
      "version": "1.3.1",
      "model": "Multiplier",
      "params": [
        {
          "id": 0,
          "value": 2.0
        },
        {
          "id": 1,
          "value": 0.0
        },
        {
          "id": 2,
          "value": 0.0
        },
        {
          "id": 3,
          "value": 0.0
        },
        {
          "id": 4,
          "value": 0.0
        },
        {
          "id": 5,
          "value": 0.0
        },
        {
          "id": 6,
          "value": 0.0
        },
        {
          "id": 7,
          "value": 0.0
        }
      ],
      "leftModuleId": 82,
      "rightModuleId": 80,
      "data": {
        "skin": ""
      },
      "pos": [
        44,
        0
      ]
    }
  ],
  "cables": [
    {
      "id": 312,
      "outputModuleId": 80,
      "outputId": 0,
      "inputModuleId": 44,
      "inputId": 0,
      "color": "#0c8e15"
    },
    {
      "id": 315,
      "outputModuleId": 82,
      "outputId": 0,
      "inputModuleId": 83,
      "inputId": 0,
      "color": "#0c8e15"
    },
    {
      "id": 316,
      "outputModuleId": 83,
      "outputId": 0,
      "inputModuleId": 80,
      "inputId": 0,
      "color": "#c91847"
    },
    {
      "id": 317,
      "outputModuleId": 81,
      "outputId": 0,
      "inputModuleId": 80,
      "inputId": 1,
      "color": "#0986ad"
    },
    {
      "id": 318,
      "outputModuleId": 82,
      "outputId": 0,
      "inputModuleId": 44,
      "inputId": 1,
      "color": "#c9b70e"
    }
  ]
}