{
  "version": "1.1.6",
  "modules": [
    {
      "id": 21,
      "plugin": "Stalys",
      "version": "1.3.1",
      "model": "Blank",
      "params": [],
      "rightModuleId": 70,
      "data": {
        "skin": "hornet"
      },
      "pos": [
        0,
        0
      ]
    },
    {
      "id": 70,
      "plugin": "Stalys",
      "version": "1.3.1",
      "model": "Function",
      "params": [
        {
          "id": 0,
          "value": 0.233047783
        },
        {
          "id": 1,
          "value": 0.347283781
        },
        {
          "id": 2,
          "value": 0.553353786
        },
        {
          "id": 3,
          "value": 0.47383222
        },
        {
          "id": 4,
          "value": 0.557054877
        },
        {
          "id": 5,
          "value": 0.580908895
        },
        {
          "id": 6,
          "value": 0.412375391
        },
        {
          "id": 7,
          "value": 0.507349491
        },
        {
          "id": 8,
          "value": 0.0
        },
        {
          "id": 9,
          "value": 0.0
        },
        {
          "id": 10,
          "value": 0.0
        },
        {
          "id": 11,
          "value": 0.00300000003
        },
        {
          "id": 12,
          "value": 0.0
        },
        {
          "id": 13,
          "value": 0.0
        },
        {
          "id": 14,
          "value": 0.0
        },
        {
          "id": 15,
          "value": 0.00300000003
        }
      ],
      "leftModuleId": 21,
      "rightModuleId": 72,
      "data": {
        "skin": ""
      },
      "pos": [
        24,
        0
      ]
    },
    {
      "id": 71,
      "plugin": "Fundamental",
      "version": "1.4.0",
      "model": "Scope",
      "params": [
        {
          "id": 0,
          "value": 0.0
        },
        {
          "id": 1,
          "value": -5.07000065
        },
        {
          "id": 2,
          "value": 0.0
        },
        {
          "id": 3,
          "value": -5.01000023
        },
        {
          "id": 4,
          "value": 9.36499786
        },
        {
          "id": 5,
          "value": 0.0
        },
        {
          "id": 6,
          "value": 0.0
        },
        {
          "id": 7,
          "value": 0.0
        }
      ],
      "leftModuleId": 72,
      "data": {
        "lissajous": 0,
        "external": 0
      },
      "pos": [
        66,
        0
      ]
    },
    {
      "id": 72,
      "plugin": "Stalys",
      "version": "1.3.1",
      "model": "Min",
      "params": [],
      "leftModuleId": 70,
      "rightModuleId": 71,
      "data": {
        "skin": ""
      },
      "pos": [
        54,
        0
      ]
    }
  ],
  "cables": [
    {
      "id": 286,
      "outputModuleId": 70,
      "outputId": 3,
      "inputModuleId": 70,
      "inputId": 1,
      "color": "#0c8e15"
    },
    {
      "id": 287,
      "outputModuleId": 70,
      "outputId": 6,
      "inputModuleId": 70,
      "inputId": 5,
      "color": "#c91847"
    },
    {
      "id": 288,
      "outputModuleId": 70,
      "outputId": 10,
      "inputModuleId": 70,
      "inputId": 9,
      "color": "#0986ad"
    },
    {
      "id": 289,
      "outputModuleId": 70,
      "outputId": 14,
      "inputModuleId": 70,
      "inputId": 13,
      "color": "#c9b70e"
    },
    {
      "id": 302,
      "outputModuleId": 70,
      "outputId": 13,
      "inputModuleId": 72,
      "inputId": 9,
      "color": "#c91847"
    },
    {
      "id": 299,
      "outputModuleId": 70,
      "outputId": 2,
      "inputModuleId": 72,
      "inputId": 6,
      "color": "#0986ad"
    },
    {
      "id": 300,
      "outputModuleId": 70,
      "outputId": 5,
      "inputModuleId": 72,
      "inputId": 7,
      "color": "#c9b70e"
    },
    {
      "id": 301,
      "outputModuleId": 70,
      "outputId": 9,
      "inputModuleId": 72,
      "inputId": 8,
      "color": "#0c8e15"
    },
    {
      "id": 303,
      "outputModuleId": 72,
      "outputId": 3,
      "inputModuleId": 71,
      "inputId": 1,
      "color": "#0986ad"
    },
    {
      "id": 290,
      "outputModuleId": 72,
      "outputId": 1,
      "inputModuleId": 71,
      "inputId": 0,
      "color": "#0c8e15"
    },
    {
      "id": 298,
      "outputModuleId": 70,
      "outputId": 12,
      "inputModuleId": 72,
      "inputId": 3,
      "color": "#c91847"
    },
    {
      "id": 295,
      "outputModuleId": 70,
      "outputId": 0,
      "inputModuleId": 72,
      "inputId": 0,
      "color": "#0986ad"
    },
    {
      "id": 296,
      "outputModuleId": 70,
      "outputId": 4,
      "inputModuleId": 72,
      "inputId": 1,
      "color": "#c9b70e"
    },
    {
      "id": 297,
      "outputModuleId": 70,
      "outputId": 8,
      "inputModuleId": 72,
      "inputId": 2,
      "color": "#0c8e15"
    }
  ]
}