{
  "version": "1.1.6",
  "modules": [
    {
      "id": 21,
      "plugin": "Stalys",
      "version": "1.3.1",
      "model": "Blank",
      "params": [],
      "rightModuleId": 43,
      "data": {
        "skin": "hornet"
      },
      "pos": [
        0,
        0
      ]
    },
    {
      "id": 43,
      "plugin": "Stalys",
      "version": "1.3.1",
      "model": "Function",
      "params": [
        {
          "id": 0,
          "value": 0.544500113
        },
        {
          "id": 1,
          "value": 0.178499833
        },
        {
          "id": 2,
          "value": 0.678000093
        },
        {
          "id": 3,
          "value": 0.390000075
        },
        {
          "id": 4,
          "value": 0.784500062
        },
        {
          "id": 5,
          "value": 0.733000219
        },
        {
          "id": 6,
          "value": 0.0
        },
        {
          "id": 7,
          "value": 0.0
        },
        {
          "id": 8,
          "value": 0.0
        },
        {
          "id": 9,
          "value": 0.0
        },
        {
          "id": 10,
          "value": 0.0
        },
        {
          "id": 11,
          "value": 0.0
        },
        {
          "id": 12,
          "value": 0.0
        },
        {
          "id": 13,
          "value": 0.0
        },
        {
          "id": 14,
          "value": 0.0
        },
        {
          "id": 15,
          "value": 0.0
        }
      ],
      "leftModuleId": 21,
      "rightModuleId": 46,
      "data": {
        "skin": ""
      },
      "pos": [
        24,
        0
      ]
    },
    {
      "id": 44,
      "plugin": "Fundamental",
      "version": "1.4.0",
      "model": "Scope",
      "params": [
        {
          "id": 0,
          "value": 0.0
        },
        {
          "id": 1,
          "value": 0.0
        },
        {
          "id": 2,
          "value": 0.0
        },
        {
          "id": 3,
          "value": 0.0
        },
        {
          "id": 4,
          "value": 6.70999813
        },
        {
          "id": 5,
          "value": 0.0
        },
        {
          "id": 6,
          "value": 0.0
        },
        {
          "id": 7,
          "value": 0.0
        }
      ],
      "leftModuleId": 46,
      "rightModuleId": 47,
      "data": {
        "lissajous": 0,
        "external": 0
      },
      "pos": [
        66,
        0
      ]
    },
    {
      "id": 46,
      "plugin": "Stalys",
      "version": "1.3.1",
      "model": "Sum",
      "params": [],
      "leftModuleId": 43,
      "rightModuleId": 44,
      "data": {
        "skin": ""
      },
      "pos": [
        54,
        0
      ]
    },
    {
      "id": 47,
      "plugin": "Stalys",
      "version": "1.3.1",
      "model": "Offset",
      "params": [
        {
          "id": 0,
          "value": -10.0
        },
        {
          "id": 1,
          "value": 0.0
        },
        {
          "id": 2,
          "value": 0.0
        },
        {
          "id": 3,
          "value": 0.0
        },
        {
          "id": 4,
          "value": 0.0
        },
        {
          "id": 5,
          "value": 0.0
        },
        {
          "id": 6,
          "value": 0.0
        },
        {
          "id": 7,
          "value": 0.0
        }
      ],
      "leftModuleId": 44,
      "data": {
        "skin": ""
      },
      "pos": [
        79,
        0
      ]
    }
  ],
  "cables": [
    {
      "id": 175,
      "outputModuleId": 43,
      "outputId": 3,
      "inputModuleId": 43,
      "inputId": 1,
      "color": "#0986ad"
    },
    {
      "id": 179,
      "outputModuleId": 43,
      "outputId": 6,
      "inputModuleId": 43,
      "inputId": 5,
      "color": "#0986ad"
    },
    {
      "id": 184,
      "outputModuleId": 47,
      "outputId": 0,
      "inputModuleId": 46,
      "inputId": 0,
      "color": "#c9b70e"
    },
    {
      "id": 181,
      "outputModuleId": 43,
      "outputId": 0,
      "inputModuleId": 46,
      "inputId": 1,
      "color": "#0c8e15"
    },
    {
      "id": 183,
      "outputModuleId": 43,
      "outputId": 4,
      "inputModuleId": 46,
      "inputId": 3,
      "color": "#0986ad"
    },
    {
      "id": 188,
      "outputModuleId": 43,
      "outputId": 8,
      "inputModuleId": 46,
      "inputId": 2,
      "color": "#0c8e15"
    },
    {
      "id": 189,
      "outputModuleId": 43,
      "outputId": 10,
      "inputModuleId": 43,
      "inputId": 9,
      "color": "#c91847"
    },
    {
      "id": 190,
      "outputModuleId": 46,
      "outputId": 1,
      "inputModuleId": 44,
      "inputId": 0,
      "color": "#0986ad"
    }
  ]
}