{
  "version": "1.1.6",
  "modules": [
    {
      "id": 1,
      "plugin": "Core",
      "version": "1.1.6",
      "model": "AudioInterface",
      "params": [],
      "leftModuleId": 7,
      "rightModuleId": 107,
      "data": {
        "audio": {
          "driver": 5,
          "deviceName": "ZOOM Corporation: H4",
          "offset": 0,
          "maxChannels": 8,
          "sampleRate": 48000,
          "blockSize": 256
        }
      },
      "pos": [
        91,
        1
      ]
    },
    {
      "id": 7,
      "plugin": "Fundamental",
      "version": "1.4.0",
      "model": "Scope",
      "params": [
        {
          "id": 0,
          "value": 0.0
        },
        {
          "id": 1,
          "value": 0.0
        },
        {
          "id": 2,
          "value": 0.0
        },
        {
          "id": 3,
          "value": 0.0
        },
        {
          "id": 4,
          "value": 12.1600008
        },
        {
          "id": 5,
          "value": 0.0
        },
        {
          "id": 6,
          "value": 0.0
        },
        {
          "id": 7,
          "value": 0.0
        }
      ],
      "leftModuleId": 139,
      "rightModuleId": 1,
      "data": {
        "lissajous": 0,
        "external": 0
      },
      "pos": [
        78,
        1
      ]
    },
    {
      "id": 62,
      "plugin": "Stalys",
      "version": "1.3.1",
      "model": "Blank",
      "params": [],
      "rightModuleId": 135,
      "data": {
        "skin": ""
      },
      "pos": [
        0,
        0
      ]
    },
    {
      "id": 72,
      "plugin": "VCV-Recorder",
      "version": "1.1.0",
      "model": "Recorder",
      "params": [
        {
          "id": 0,
          "value": 1.0
        },
        {
          "id": 1,
          "value": 0.0
        }
      ],
      "leftModuleId": 106,
      "rightModuleId": 118,
      "data": {
        "format": "wav",
        "path": "",
        "incrementPath": true,
        "sampleRate": 96000,
        "depth": 16,
        "bitRate": 256000,
        "videoBitRate": 2048000
      },
      "pos": [
        97,
        0
      ]
    },
    {
      "id": 104,
      "plugin": "AS",
      "version": "1.0.4",
      "model": "ReverbStereoFx",
      "params": [
        {
          "id": 0,
          "value": 0.416500092
        },
        {
          "id": 1,
          "value": 0.349499971
        },
        {
          "id": 2,
          "value": 0.174999937
        },
        {
          "id": 3,
          "value": 0.0
        }
      ],
      "leftModuleId": 149,
      "rightModuleId": 150,
      "data": {
        "as_FxBypass": [
          false
        ]
      },
      "pos": [
        84,
        0
      ]
    },
    {
      "id": 106,
      "plugin": "NYSTHI",
      "version": "1.0.17",
      "model": "4DCBlock",
      "params": [
        {
          "id": 0,
          "value": 0.0
        }
      ],
      "leftModuleId": 150,
      "rightModuleId": 72,
      "data": {
        "m_current_dc_block_frequency": 10.0
      },
      "pos": [
        95,
        0
      ]
    },
    {
      "id": 107,
      "plugin": "Core",
      "version": "1.1.6",
      "model": "Notes",
      "params": [],
      "leftModuleId": 1,
      "rightModuleId": 161,
      "text": "This patch is a complex cybernetic feedback loop, coupled with some mid-side magic.\n\nThere are two sound sources: Two functions cross-modulating each-other, and a sine osc hard synced and FMed by them. (also dc to reverb for percussions)\n\nMelody is generated by the average of three LFOs sampled at various sub-divisions of a clock. (with some switching between inverted and positive average).\n\nAll mixing is done by substraction and averaging to generate fun tones.\n\nDynamics is not managed by VCAs, but by variations of the LFO frequencies, and gates averaged and substracted with the signal.",
      "pos": [
        101,
        1
      ]
    },
    {
      "id": 118,
      "plugin": "ModularFungi",
      "version": "1.1.4",
      "model": "Blank16HP",
      "params": [],
      "leftModuleId": 72,
      "style": 1.0,
      "pos": [
        102,
        0
      ]
    },
    {
      "id": 135,
      "plugin": "Stalys",
      "version": "1.3.1",
      "model": "Function",
      "params": [
        {
          "id": 0,
          "value": 0.833958626
        },
        {
          "id": 1,
          "value": 0.0179768801
        },
        {
          "id": 2,
          "value": 0.297988325
        },
        {
          "id": 3,
          "value": 0.162426233
        },
        {
          "id": 4,
          "value": 0.13899073
        },
        {
          "id": 5,
          "value": 0.121362507
        },
        {
          "id": 6,
          "value": 0.160605252
        },
        {
          "id": 7,
          "value": 0.0618680343
        },
        {
          "id": 8,
          "value": 0.24048458
        },
        {
          "id": 9,
          "value": 0.585062325
        },
        {
          "id": 10,
          "value": 0.442897558
        },
        {
          "id": 11,
          "value": 0.541727781
        },
        {
          "id": 12,
          "value": 0.593576133
        },
        {
          "id": 13,
          "value": 0.428500056
        },
        {
          "id": 14,
          "value": 0.760464966
        },
        {
          "id": 15,
          "value": 0.687191904
        }
      ],
      "leftModuleId": 62,
      "rightModuleId": 137,
      "data": {
        "skin": ""
      },
      "pos": [
        24,
        0
      ]
    },
    {
      "id": 137,
      "plugin": "Stalys",
      "version": "1.3.1",
      "model": "VCSampleAndDelay",
      "params": [
        {
          "id": 0,
          "value": 3.0
        },
        {
          "id": 1,
          "value": 4.0
        },
        {
          "id": 2,
          "value": 3.0
        },
        {
          "id": 3,
          "value": 7.0
        },
        {
          "id": 4,
          "value": 4.0
        },
        {
          "id": 5,
          "value": 1.0
        },
        {
          "id": 6,
          "value": 9.0
        },
        {
          "id": 7,
          "value": 7.0
        }
      ],
      "leftModuleId": 135,
      "rightModuleId": 138,
      "data": {
        "skin": ""
      },
      "pos": [
        54,
        0
      ]
    },
    {
      "id": 138,
      "plugin": "Stalys",
      "version": "1.3.1",
      "model": "Avg",
      "params": [],
      "leftModuleId": 137,
      "rightModuleId": 149,
      "data": {
        "skin": ""
      },
      "pos": [
        69,
        0
      ]
    },
    {
      "id": 139,
      "plugin": "Stalys",
      "version": "1.3.1",
      "model": "Multiplier",
      "params": [
        {
          "id": 0,
          "value": -0.411378384
        },
        {
          "id": 1,
          "value": -1.86727309
        },
        {
          "id": 2,
          "value": 1.02620625
        },
        {
          "id": 3,
          "value": 1.26286912
        },
        {
          "id": 4,
          "value": -0.402000129
        },
        {
          "id": 5,
          "value": -0.518924296
        },
        {
          "id": 6,
          "value": -0.856090188
        },
        {
          "id": 7,
          "value": -1.94071722
        }
      ],
      "leftModuleId": 140,
      "rightModuleId": 7,
      "data": {
        "skin": "hornet"
      },
      "pos": [
        66,
        1
      ]
    },
    {
      "id": 140,
      "plugin": "Stalys",
      "version": "1.3.1",
      "model": "ABY",
      "params": [],
      "leftModuleId": 142,
      "rightModuleId": 139,
      "data": {
        "skin": ""
      },
      "pos": [
        54,
        1
      ]
    },
    {
      "id": 142,
      "plugin": "Stalys",
      "version": "1.3.1",
      "model": "Comparator",
      "params": [
        {
          "id": 0,
          "value": 4.64673805
        },
        {
          "id": 1,
          "value": 6.53132772
        },
        {
          "id": 2,
          "value": -3.98287773
        },
        {
          "id": 3,
          "value": 5.70730209
        },
        {
          "id": 4,
          "value": 7.36014557
        },
        {
          "id": 5,
          "value": -2.9224577
        },
        {
          "id": 6,
          "value": -4.44010258
        },
        {
          "id": 7,
          "value": -7.31445551
        }
      ],
      "leftModuleId": 143,
      "rightModuleId": 140,
      "data": {
        "skin": ""
      },
      "pos": [
        42,
        1
      ]
    },
    {
      "id": 143,
      "plugin": "Stalys",
      "version": "1.3.1",
      "model": "Clip",
      "params": [
        {
          "id": 0,
          "value": 0.185198441
        },
        {
          "id": 1,
          "value": -0.118319839
        },
        {
          "id": 2,
          "value": 0.928809881
        },
        {
          "id": 3,
          "value": -1.23856878
        },
        {
          "id": 4,
          "value": 0.0316073895
        },
        {
          "id": 5,
          "value": -0.0852110386
        },
        {
          "id": 6,
          "value": -1.90309763
        },
        {
          "id": 7,
          "value": 0.376645565
        }
      ],
      "leftModuleId": 145,
      "rightModuleId": 142,
      "data": {
        "skin": ""
      },
      "pos": [
        30,
        1
      ]
    },
    {
      "id": 145,
      "plugin": "Stalys",
      "version": "1.3.1",
      "model": "Diff",
      "params": [],
      "leftModuleId": 147,
      "rightModuleId": 143,
      "data": {
        "skin": ""
      },
      "pos": [
        18,
        1
      ]
    },
    {
      "id": 147,
      "plugin": "Stalys",
      "version": "1.3.1",
      "model": "Min",
      "params": [],
      "leftModuleId": 148,
      "rightModuleId": 145,
      "data": {
        "skin": ""
      },
      "pos": [
        6,
        1
      ]
    },
    {
      "id": 148,
      "plugin": "Stalys",
      "version": "1.3.1",
      "model": "Offset",
      "params": [
        {
          "id": 0,
          "value": 3.56999922
        },
        {
          "id": 1,
          "value": 2.94000006
        },
        {
          "id": 2,
          "value": 0.0
        },
        {
          "id": 3,
          "value": 0.0
        },
        {
          "id": 4,
          "value": 0.0
        },
        {
          "id": 5,
          "value": 0.0
        },
        {
          "id": 6,
          "value": 0.0
        },
        {
          "id": 7,
          "value": 0.0
        }
      ],
      "rightModuleId": 147,
      "data": {
        "skin": ""
      },
      "pos": [
        0,
        1
      ]
    },
    {
      "id": 149,
      "plugin": "TinyTricks",
      "version": "1.5.0",
      "model": "TTSIN",
      "params": [
        {
          "id": 0,
          "value": -1.5
        },
        {
          "id": 1,
          "value": 0.0
        },
        {
          "id": 2,
          "value": 0.00999999978
        }
      ],
      "leftModuleId": 138,
      "rightModuleId": 104,
      "data": {
        "skin": 2,
        "forcebright": false
      },
      "pos": [
        81,
        0
      ]
    },
    {
      "id": 150,
      "plugin": "Fundamental",
      "version": "1.4.0",
      "model": "MidSide",
      "params": [
        {
          "id": 0,
          "value": 1.20799959
        },
        {
          "id": 1,
          "value": 1.27499998
        }
      ],
      "leftModuleId": 104,
      "rightModuleId": 106,
      "pos": [
        90,
        0
      ]
    },
    {
      "id": 161,
      "plugin": "Chiptuner",
      "version": "1.0.0",
      "model": "Blank1HP",
      "params": [],
      "leftModuleId": 107,
      "style": 1.0,
      "pos": [
        117,
        1
      ]
    }
  ],
  "cables": [
    {
      "id": 606,
      "outputModuleId": 104,
      "outputId": 0,
      "inputModuleId": 106,
      "inputId": 0,
      "color": "#0c8e15"
    },
    {
      "id": 607,
      "outputModuleId": 104,
      "outputId": 1,
      "inputModuleId": 106,
      "inputId": 1,
      "color": "#c91847"
    },
    {
      "id": 777,
      "outputModuleId": 137,
      "outputId": 0,
      "inputModuleId": 138,
      "inputId": 0,
      "color": "#c9b70e"
    },
    {
      "id": 778,
      "outputModuleId": 137,
      "outputId": 1,
      "inputModuleId": 138,
      "inputId": 1,
      "color": "#0c8e15"
    },
    {
      "id": 779,
      "outputModuleId": 137,
      "outputId": 2,
      "inputModuleId": 138,
      "inputId": 2,
      "color": "#c91847"
    },
    {
      "id": 780,
      "outputModuleId": 138,
      "outputId": 0,
      "inputModuleId": 139,
      "inputId": 0,
      "color": "#0986ad"
    },
    {
      "id": 792,
      "outputModuleId": 139,
      "outputId": 2,
      "inputModuleId": 104,
      "inputId": 3,
      "color": "#0986ad"
    },
    {
      "id": 781,
      "outputModuleId": 139,
      "outputId": 0,
      "inputModuleId": 140,
      "inputId": 0,
      "color": "#c9b70e"
    },
    {
      "id": 784,
      "outputModuleId": 139,
      "outputId": 0,
      "inputModuleId": 139,
      "inputId": 6,
      "color": "#0986ad"
    },
    {
      "id": 805,
      "outputModuleId": 139,
      "outputId": 3,
      "inputModuleId": 140,
      "inputId": 3,
      "color": "#c9b70e"
    },
    {
      "id": 808,
      "outputModuleId": 139,
      "outputId": 1,
      "inputModuleId": 140,
      "inputId": 1,
      "color": "#c9b70e"
    },
    {
      "id": 809,
      "outputModuleId": 139,
      "outputId": 2,
      "inputModuleId": 140,
      "inputId": 4,
      "color": "#0c8e15"
    },
    {
      "id": 812,
      "outputModuleId": 142,
      "outputId": 0,
      "inputModuleId": 140,
      "inputId": 2,
      "color": "#c9b70e"
    },
    {
      "id": 814,
      "outputModuleId": 142,
      "outputId": 1,
      "inputModuleId": 140,
      "inputId": 5,
      "color": "#c91847"
    },
    {
      "id": 819,
      "outputModuleId": 143,
      "outputId": 0,
      "inputModuleId": 145,
      "inputId": 1,
      "color": "#0986ad"
    },
    {
      "id": 820,
      "outputModuleId": 143,
      "outputId": 1,
      "inputModuleId": 145,
      "inputId": 3,
      "color": "#c9b70e"
    },
    {
      "id": 800,
      "outputModuleId": 139,
      "outputId": 2,
      "inputModuleId": 135,
      "inputId": 23,
      "color": "#0986ad"
    },
    {
      "id": 833,
      "outputModuleId": 137,
      "outputId": 2,
      "inputModuleId": 135,
      "inputId": 18,
      "color": "#0986ad"
    },
    {
      "id": 822,
      "outputModuleId": 145,
      "outputId": 1,
      "inputModuleId": 135,
      "inputId": 12,
      "color": "#0986ad"
    },
    {
      "id": 830,
      "outputModuleId": 140,
      "outputId": 1,
      "inputModuleId": 135,
      "inputId": 15,
      "color": "#c9b70e"
    },
    {
      "id": 835,
      "outputModuleId": 139,
      "outputId": 0,
      "inputModuleId": 135,
      "inputId": 14,
      "color": "#0c8e15"
    },
    {
      "id": 817,
      "outputModuleId": 145,
      "outputId": 0,
      "inputModuleId": 135,
      "inputId": 8,
      "color": "#0c8e15"
    },
    {
      "id": 828,
      "outputModuleId": 140,
      "outputId": 0,
      "inputModuleId": 135,
      "inputId": 11,
      "color": "#c91847"
    },
    {
      "id": 834,
      "outputModuleId": 139,
      "outputId": 1,
      "inputModuleId": 135,
      "inputId": 10,
      "color": "#c9b70e"
    },
    {
      "id": 807,
      "outputModuleId": 140,
      "outputId": 1,
      "inputModuleId": 135,
      "inputId": 7,
      "color": "#c91847"
    },
    {
      "id": 806,
      "outputModuleId": 140,
      "outputId": 1,
      "inputModuleId": 135,
      "inputId": 6,
      "color": "#0c8e15"
    },
    {
      "id": 804,
      "outputModuleId": 140,
      "outputId": 0,
      "inputModuleId": 135,
      "inputId": 3,
      "color": "#0986ad"
    },
    {
      "id": 803,
      "outputModuleId": 140,
      "outputId": 0,
      "inputModuleId": 135,
      "inputId": 2,
      "color": "#c91847"
    },
    {
      "id": 768,
      "outputModuleId": 135,
      "outputId": 30,
      "inputModuleId": 135,
      "inputId": 29,
      "color": "#c91847"
    },
    {
      "id": 787,
      "outputModuleId": 135,
      "outputId": 24,
      "inputModuleId": 138,
      "inputId": 3,
      "color": "#c91847"
    },
    {
      "id": 797,
      "outputModuleId": 135,
      "outputId": 22,
      "inputModuleId": 135,
      "inputId": 21,
      "color": "#c9b70e"
    },
    {
      "id": 811,
      "outputModuleId": 135,
      "outputId": 16,
      "inputModuleId": 142,
      "inputId": 0,
      "color": "#0986ad"
    },
    {
      "id": 821,
      "outputModuleId": 135,
      "outputId": 12,
      "inputModuleId": 145,
      "inputId": 4,
      "color": "#c91847"
    },
    {
      "id": 815,
      "outputModuleId": 135,
      "outputId": 8,
      "inputModuleId": 139,
      "inputId": 12,
      "color": "#0986ad"
    },
    {
      "id": 818,
      "outputModuleId": 135,
      "outputId": 8,
      "inputModuleId": 145,
      "inputId": 0,
      "color": "#c91847"
    },
    {
      "id": 783,
      "outputModuleId": 135,
      "outputId": 6,
      "inputModuleId": 135,
      "inputId": 5,
      "color": "#c91847"
    },
    {
      "id": 766,
      "outputModuleId": 135,
      "outputId": 3,
      "inputModuleId": 135,
      "inputId": 1,
      "color": "#c9b70e"
    },
    {
      "id": 840,
      "outputModuleId": 135,
      "outputId": 12,
      "inputModuleId": 139,
      "inputId": 14,
      "color": "#0986ad"
    },
    {
      "id": 772,
      "outputModuleId": 135,
      "outputId": 26,
      "inputModuleId": 135,
      "inputId": 25,
      "color": "#0986ad"
    },
    {
      "id": 769,
      "outputModuleId": 135,
      "outputId": 24,
      "inputModuleId": 137,
      "inputId": 2,
      "color": "#0986ad"
    },
    {
      "id": 770,
      "outputModuleId": 135,
      "outputId": 24,
      "inputModuleId": 137,
      "inputId": 4,
      "color": "#c9b70e"
    },
    {
      "id": 771,
      "outputModuleId": 135,
      "outputId": 24,
      "inputModuleId": 137,
      "inputId": 7,
      "color": "#0c8e15"
    },
    {
      "id": 844,
      "outputModuleId": 139,
      "outputId": 5,
      "inputModuleId": 135,
      "inputId": 26,
      "color": "#c9b70e"
    },
    {
      "id": 847,
      "outputModuleId": 139,
      "outputId": 6,
      "inputModuleId": 145,
      "inputId": 6,
      "color": "#0986ad"
    },
    {
      "id": 846,
      "outputModuleId": 139,
      "outputId": 7,
      "inputModuleId": 145,
      "inputId": 7,
      "color": "#c91847"
    },
    {
      "id": 852,
      "outputModuleId": 135,
      "outputId": 3,
      "inputModuleId": 147,
      "inputId": 0,
      "color": "#0986ad"
    },
    {
      "id": 853,
      "outputModuleId": 135,
      "outputId": 6,
      "inputModuleId": 147,
      "inputId": 1,
      "color": "#c9b70e"
    },
    {
      "id": 854,
      "outputModuleId": 147,
      "outputId": 0,
      "inputModuleId": 137,
      "inputId": 0,
      "color": "#0c8e15"
    },
    {
      "id": 864,
      "outputModuleId": 135,
      "outputId": 4,
      "inputModuleId": 143,
      "inputId": 2,
      "color": "#0986ad"
    },
    {
      "id": 865,
      "outputModuleId": 135,
      "outputId": 0,
      "inputModuleId": 143,
      "inputId": 0,
      "color": "#c9b70e"
    },
    {
      "id": 867,
      "outputModuleId": 139,
      "outputId": 5,
      "inputModuleId": 104,
      "inputId": 0,
      "color": "#c91847"
    },
    {
      "id": 848,
      "outputModuleId": 145,
      "outputId": 2,
      "inputModuleId": 139,
      "inputId": 10,
      "color": "#c9b70e"
    },
    {
      "id": 869,
      "outputModuleId": 135,
      "outputId": 18,
      "inputModuleId": 135,
      "inputId": 17,
      "color": "#0986ad"
    },
    {
      "id": 870,
      "outputModuleId": 135,
      "outputId": 20,
      "inputModuleId": 142,
      "inputId": 2,
      "color": "#c9b70e"
    },
    {
      "id": 841,
      "outputModuleId": 135,
      "outputId": 31,
      "inputModuleId": 137,
      "inputId": 6,
      "color": "#0986ad"
    },
    {
      "id": 842,
      "outputModuleId": 135,
      "outputId": 27,
      "inputModuleId": 137,
      "inputId": 3,
      "color": "#c9b70e"
    },
    {
      "id": 843,
      "outputModuleId": 135,
      "outputId": 21,
      "inputModuleId": 137,
      "inputId": 1,
      "color": "#0c8e15"
    },
    {
      "id": 873,
      "outputModuleId": 148,
      "outputId": 0,
      "inputModuleId": 138,
      "inputId": 6,
      "color": "#0c8e15"
    },
    {
      "id": 799,
      "outputModuleId": 138,
      "outputId": 2,
      "inputModuleId": 104,
      "inputId": 4,
      "color": "#c91847"
    },
    {
      "id": 791,
      "outputModuleId": 138,
      "outputId": 2,
      "inputModuleId": 139,
      "inputId": 4,
      "color": "#c91847"
    },
    {
      "id": 789,
      "outputModuleId": 138,
      "outputId": 2,
      "inputModuleId": 139,
      "inputId": 2,
      "color": "#c9b70e"
    },
    {
      "id": 874,
      "outputModuleId": 139,
      "outputId": 4,
      "inputModuleId": 145,
      "inputId": 8,
      "color": "#0c8e15"
    },
    {
      "id": 876,
      "outputModuleId": 139,
      "outputId": 4,
      "inputModuleId": 104,
      "inputId": 1,
      "color": "#c9b70e"
    },
    {
      "id": 859,
      "outputModuleId": 138,
      "outputId": 0,
      "inputModuleId": 149,
      "inputId": 1,
      "color": "#c91847"
    },
    {
      "id": 877,
      "outputModuleId": 139,
      "outputId": 5,
      "inputModuleId": 149,
      "inputId": 3,
      "color": "#0c8e15"
    },
    {
      "id": 860,
      "outputModuleId": 147,
      "outputId": 0,
      "inputModuleId": 149,
      "inputId": 0,
      "color": "#0986ad"
    },
    {
      "id": 704,
      "outputModuleId": 106,
      "outputId": 0,
      "inputModuleId": 138,
      "inputId": 9,
      "color": "#c9b70e"
    },
    {
      "id": 705,
      "outputModuleId": 106,
      "outputId": 1,
      "inputModuleId": 138,
      "inputId": 10,
      "color": "#0c8e15"
    },
    {
      "id": 879,
      "outputModuleId": 150,
      "outputId": 2,
      "inputModuleId": 1,
      "inputId": 0,
      "color": "#0986ad"
    },
    {
      "id": 880,
      "outputModuleId": 150,
      "outputId": 3,
      "inputModuleId": 1,
      "inputId": 1,
      "color": "#c9b70e"
    },
    {
      "id": 881,
      "outputModuleId": 150,
      "outputId": 2,
      "inputModuleId": 7,
      "inputId": 0,
      "color": "#0c8e15"
    },
    {
      "id": 882,
      "outputModuleId": 150,
      "outputId": 3,
      "inputModuleId": 7,
      "inputId": 1,
      "color": "#c91847"
    },
    {
      "id": 883,
      "outputModuleId": 106,
      "outputId": 0,
      "inputModuleId": 145,
      "inputId": 9,
      "color": "#0986ad"
    },
    {
      "id": 884,
      "outputModuleId": 106,
      "outputId": 1,
      "inputModuleId": 145,
      "inputId": 10,
      "color": "#c9b70e"
    },
    {
      "id": 885,
      "outputModuleId": 145,
      "outputId": 3,
      "inputModuleId": 150,
      "inputId": 5,
      "color": "#0c8e15"
    },
    {
      "id": 887,
      "outputModuleId": 139,
      "outputId": 5,
      "inputModuleId": 106,
      "inputId": 2,
      "color": "#0986ad"
    },
    {
      "id": 889,
      "outputModuleId": 106,
      "outputId": 0,
      "inputModuleId": 150,
      "inputId": 1,
      "color": "#0c8e15"
    },
    {
      "id": 890,
      "outputModuleId": 106,
      "outputId": 1,
      "inputModuleId": 150,
      "inputId": 2,
      "color": "#c91847"
    },
    {
      "id": 891,
      "outputModuleId": 150,
      "outputId": 0,
      "inputModuleId": 150,
      "inputId": 4,
      "color": "#c9b70e"
    },
    {
      "id": 892,
      "outputModuleId": 150,
      "outputId": 2,
      "inputModuleId": 72,
      "inputId": 2,
      "color": "#0c8e15"
    },
    {
      "id": 893,
      "outputModuleId": 150,
      "outputId": 3,
      "inputModuleId": 72,
      "inputId": 3,
      "color": "#c91847"
    },
    {
      "id": 894,
      "outputModuleId": 138,
      "outputId": 0,
      "inputModuleId": 104,
      "inputId": 2,
      "color": "#0c8e15"
    },
    {
      "id": 895,
      "outputModuleId": 138,
      "outputId": 2,
      "inputModuleId": 150,
      "inputId": 3,
      "color": "#c91847"
    },
    {
      "id": 896,
      "outputModuleId": 138,
      "outputId": 3,
      "inputModuleId": 150,
      "inputId": 0,
      "color": "#0986ad"
    },
    {
      "id": 897,
      "outputModuleId": 147,
      "outputId": 0,
      "inputModuleId": 143,
      "inputId": 1,
      "color": "#0986ad"
    },
    {
      "id": 898,
      "outputModuleId": 147,
      "outputId": 0,
      "inputModuleId": 143,
      "inputId": 3,
      "color": "#c9b70e"
    },
    {
      "id": 858,
      "outputModuleId": 149,
      "outputId": 0,
      "inputModuleId": 139,
      "inputId": 8,
      "color": "#0c8e15"
    },
    {
      "id": 788,
      "outputModuleId": 135,
      "outputId": 4,
      "inputModuleId": 138,
      "inputId": 4,
      "color": "#0986ad"
    },
    {
      "id": 899,
      "outputModuleId": 135,
      "outputId": 20,
      "inputModuleId": 138,
      "inputId": 5,
      "color": "#0986ad"
    }
  ]
}