{
  "version": "1.1.6",
  "modules": [
    {
      "id": 1,
      "plugin": "Stalys",
      "version": "1.3.1",
      "model": "Clip",
      "params": [
        {
          "id": 0,
          "value": -0.721999764
        },
        {
          "id": 1,
          "value": 1.48375833
        },
        {
          "id": 2,
          "value": 1.53544426
        },
        {
          "id": 3,
          "value": 1.40883374
        },
        {
          "id": 4,
          "value": -0.383702278
        },
        {
          "id": 5,
          "value": -0.0465524197
        },
        {
          "id": 6,
          "value": 1.33914876
        },
        {
          "id": 7,
          "value": -1.5225203
        }
      ],
      "leftModuleId": 2,
      "rightModuleId": 18,
      "data": {
        "skin": "hornet"
      },
      "pos": [
        54,
        1
      ]
    },
    {
      "id": 2,
      "plugin": "Stalys",
      "version": "1.3.1",
      "model": "Multiplier",
      "params": [
        {
          "id": 0,
          "value": -1.43600047
        },
        {
          "id": 1,
          "value": 1.50401473
        },
        {
          "id": 2,
          "value": -0.427180409
        },
        {
          "id": 3,
          "value": -1.03743887
        },
        {
          "id": 4,
          "value": 0.872000217
        },
        {
          "id": 5,
          "value": -1.30630803
        },
        {
          "id": 6,
          "value": -0.808508694
        },
        {
          "id": 7,
          "value": 0.705278456
        }
      ],
      "leftModuleId": 7,
      "rightModuleId": 1,
      "data": {
        "skin": "hornet"
      },
      "pos": [
        42,
        1
      ]
    },
    {
      "id": 3,
      "plugin": "Stalys",
      "version": "1.3.1",
      "model": "Function",
      "params": [
        {
          "id": 0,
          "value": 0.489276141
        },
        {
          "id": 1,
          "value": 0.685644209
        },
        {
          "id": 2,
          "value": 0.662552595
        },
        {
          "id": 3,
          "value": 0.394932061
        },
        {
          "id": 4,
          "value": 0.635008574
        },
        {
          "id": 5,
          "value": 0.429406136
        },
        {
          "id": 6,
          "value": 0.274036109
        },
        {
          "id": 7,
          "value": 0.367423236
        },
        {
          "id": 8,
          "value": 0.298691928
        },
        {
          "id": 9,
          "value": 0.71137172
        },
        {
          "id": 10,
          "value": 0.20866704
        },
        {
          "id": 11,
          "value": 0.187562704
        },
        {
          "id": 12,
          "value": 0.928800642
        },
        {
          "id": 13,
          "value": 0.0505270362
        },
        {
          "id": 14,
          "value": 0.98806411
        },
        {
          "id": 15,
          "value": 0.352475345
        }
      ],
      "leftModuleId": 21,
      "rightModuleId": 8,
      "data": {
        "skin": "hornet"
      },
      "pos": [
        24,
        0
      ]
    },
    {
      "id": 6,
      "plugin": "Core",
      "version": "1.1.6",
      "model": "AudioInterface",
      "params": [],
      "leftModuleId": 15,
      "rightModuleId": 20,
      "data": {
        "audio": {
          "driver": 5,
          "deviceName": "ZOOM Corporation: H4",
          "offset": 0,
          "maxChannels": 8,
          "sampleRate": 48000,
          "blockSize": 256
        }
      },
      "pos": [
        86,
        1
      ]
    },
    {
      "id": 7,
      "plugin": "Stalys",
      "version": "1.3.1",
      "model": "VCDualNeuron",
      "params": [
        {
          "id": 0,
          "value": -0.700280666
        },
        {
          "id": 1,
          "value": 0.586987019
        },
        {
          "id": 2,
          "value": -0.685829997
        },
        {
          "id": 3,
          "value": -0.593782663
        },
        {
          "id": 4,
          "value": 0.966642857
        },
        {
          "id": 5,
          "value": 0.229815006
        },
        {
          "id": 6,
          "value": 1.02217197
        },
        {
          "id": 7,
          "value": 6.92712831
        },
        {
          "id": 8,
          "value": -0.556984901
        },
        {
          "id": 9,
          "value": -0.815509439
        },
        {
          "id": 10,
          "value": 0.673304558
        },
        {
          "id": 11,
          "value": -0.603483438
        },
        {
          "id": 12,
          "value": 0.552994847
        },
        {
          "id": 13,
          "value": -0.260822713
        },
        {
          "id": 14,
          "value": 2.32243919
        },
        {
          "id": 15,
          "value": 8.42086029
        },
        {
          "id": 16,
          "value": 0.820775211
        },
        {
          "id": 17,
          "value": 0.934000134
        },
        {
          "id": 18,
          "value": -0.646164238
        },
        {
          "id": 19,
          "value": -0.00713467598
        }
      ],
      "rightModuleId": 2,
      "data": {
        "skin": "hornet"
      },
      "pos": [
        0,
        1
      ]
    },
    {
      "id": 8,
      "plugin": "Stalys",
      "version": "1.3.1",
      "model": "Sum",
      "params": [],
      "leftModuleId": 3,
      "rightModuleId": 9,
      "data": {
        "skin": "hornet"
      },
      "pos": [
        54,
        0
      ]
    },
    {
      "id": 9,
      "plugin": "Stalys",
      "version": "1.3.1",
      "model": "ASR",
      "params": [],
      "leftModuleId": 8,
      "rightModuleId": 11,
      "data": {
        "skin": "hornet"
      },
      "pos": [
        66,
        0
      ]
    },
    {
      "id": 11,
      "plugin": "Stalys",
      "version": "1.3.1",
      "model": "DAC",
      "params": [],
      "leftModuleId": 9,
      "rightModuleId": 12,
      "data": {
        "skin": "hornet"
      },
      "pos": [
        72,
        0
      ]
    },
    {
      "id": 12,
      "plugin": "Stalys",
      "version": "1.3.1",
      "model": "DAC",
      "params": [],
      "leftModuleId": 11,
      "rightModuleId": 26,
      "data": {
        "skin": "hornet"
      },
      "pos": [
        78,
        0
      ]
    },
    {
      "id": 13,
      "plugin": "NYSTHI",
      "version": "1.0.17",
      "model": "4DCBlock",
      "params": [
        {
          "id": 0,
          "value": 0.0
        }
      ],
      "leftModuleId": 26,
      "rightModuleId": 17,
      "data": {
        "m_current_dc_block_frequency": 10.0
      },
      "pos": [
        87,
        0
      ]
    },
    {
      "id": 15,
      "plugin": "Valley",
      "version": "1.1.4",
      "model": "Feline",
      "params": [
        {
          "id": 0,
          "value": 5.98000383
        },
        {
          "id": 1,
          "value": 5.52999496
        },
        {
          "id": 2,
          "value": 0.0
        },
        {
          "id": 3,
          "value": 0.0
        },
        {
          "id": 4,
          "value": -0.0651677996
        },
        {
          "id": 5,
          "value": 0.62674576
        },
        {
          "id": 6,
          "value": 0.224191606
        },
        {
          "id": 7,
          "value": 0.53229475
        },
        {
          "id": 8,
          "value": 0.0804994106
        },
        {
          "id": 9,
          "value": -0.363454938
        },
        {
          "id": 10,
          "value": 0.558016181
        },
        {
          "id": 11,
          "value": -0.0570424795
        },
        {
          "id": 12,
          "value": -0.233968616
        },
        {
          "id": 13,
          "value": 0.451593876
        },
        {
          "id": 14,
          "value": 0.031058073
        },
        {
          "id": 15,
          "value": -0.490683675
        },
        {
          "id": 16,
          "value": 0.0653544664
        }
      ],
      "leftModuleId": 18,
      "rightModuleId": 6,
      "data": {
        "panelStyle": 0
      },
      "pos": [
        78,
        1
      ]
    },
    {
      "id": 17,
      "plugin": "AlrightDevices",
      "version": "1.0.3",
      "model": "Chronoblob2",
      "params": [
        {
          "id": 0,
          "value": 0.0855000094
        },
        {
          "id": 1,
          "value": 0.5
        },
        {
          "id": 2,
          "value": 0.330999762
        },
        {
          "id": 3,
          "value": 0.0
        },
        {
          "id": 4,
          "value": 0.0
        },
        {
          "id": 5,
          "value": 0.0
        },
        {
          "id": 6,
          "value": 0.0
        },
        {
          "id": 7,
          "value": 0.0
        },
        {
          "id": 8,
          "value": 0.0
        },
        {
          "id": 9,
          "value": 0.0
        }
      ],
      "leftModuleId": 13,
      "rightModuleId": 130,
      "data": {
        "delay_mode": 1,
        "hold_behavior": 0,
        "sync_prescaler": 6
      },
      "pos": [
        89,
        0
      ]
    },
    {
      "id": 18,
      "plugin": "Stalys",
      "version": "1.3.1",
      "model": "Comparator",
      "params": [
        {
          "id": 0,
          "value": 0.729999304
        },
        {
          "id": 1,
          "value": 1.82287216
        },
        {
          "id": 2,
          "value": -1.86784267
        },
        {
          "id": 3,
          "value": 0.90564537
        },
        {
          "id": 4,
          "value": 2.41495705
        },
        {
          "id": 5,
          "value": 7.84515762
        },
        {
          "id": 6,
          "value": 3.64877605
        },
        {
          "id": 7,
          "value": 9.73259163
        }
      ],
      "leftModuleId": 1,
      "rightModuleId": 15,
      "data": {
        "skin": "hornet"
      },
      "pos": [
        66,
        1
      ]
    },
    {
      "id": 20,
      "plugin": "VCV-Recorder",
      "version": "1.1.0",
      "model": "Recorder",
      "params": [
        {
          "id": 0,
          "value": 1.0
        },
        {
          "id": 1,
          "value": 0.0
        }
      ],
      "leftModuleId": 6,
      "rightModuleId": 132,
      "data": {
        "format": "mpeg2",
        "path": "/Users/denischevalier/Documents/Rack/Untitled.mpg",
        "incrementPath": true,
        "sampleRate": 96000,
        "depth": 16,
        "bitRate": 256000,
        "videoBitRate": 2048000
      },
      "pos": [
        96,
        1
      ]
    },
    {
      "id": 21,
      "plugin": "Stalys",
      "version": "1.3.1",
      "model": "Blank",
      "params": [],
      "rightModuleId": 3,
      "data": {
        "skin": "hornet"
      },
      "pos": [
        0,
        0
      ]
    },
    {
      "id": 26,
      "plugin": "Bogaudio",
      "version": "1.1.35",
      "model": "Bogaudio-VU",
      "params": [],
      "leftModuleId": 12,
      "rightModuleId": 13,
      "data": {
        "skin": "dark"
      },
      "pos": [
        84,
        0
      ]
    },
    {
      "id": 27,
      "plugin": "Fundamental",
      "version": "1.4.0",
      "model": "Scope",
      "params": [
        {
          "id": 0,
          "value": 0.0
        },
        {
          "id": 1,
          "value": -5.0
        },
        {
          "id": 2,
          "value": 0.0
        },
        {
          "id": 3,
          "value": 5.0
        },
        {
          "id": 4,
          "value": 14.0
        },
        {
          "id": 5,
          "value": 0.0
        },
        {
          "id": 6,
          "value": 0.0
        },
        {
          "id": 7,
          "value": 0.0
        }
      ],
      "leftModuleId": 151,
      "rightModuleId": 28,
      "data": {
        "lissajous": 0,
        "external": 0
      },
      "pos": [
        75,
        2
      ]
    },
    {
      "id": 28,
      "plugin": "Fundamental",
      "version": "1.4.0",
      "model": "Scope",
      "params": [
        {
          "id": 0,
          "value": 1.0
        },
        {
          "id": 1,
          "value": 0.0
        },
        {
          "id": 2,
          "value": 1.0
        },
        {
          "id": 3,
          "value": 0.0
        },
        {
          "id": 4,
          "value": 14.0
        },
        {
          "id": 5,
          "value": 0.0
        },
        {
          "id": 6,
          "value": 0.0
        },
        {
          "id": 7,
          "value": 0.0
        }
      ],
      "leftModuleId": 27,
      "rightModuleId": 131,
      "data": {
        "lissajous": 1,
        "external": 0
      },
      "pos": [
        88,
        2
      ]
    },
    {
      "id": 30,
      "plugin": "Fundamental",
      "version": "1.4.0",
      "model": "Scope",
      "params": [
        {
          "id": 0,
          "value": -1.0
        },
        {
          "id": 1,
          "value": 0.0
        },
        {
          "id": 2,
          "value": -1.0
        },
        {
          "id": 3,
          "value": 0.0
        },
        {
          "id": 4,
          "value": 10.1900005
        },
        {
          "id": 5,
          "value": 0.0
        },
        {
          "id": 6,
          "value": 0.0
        },
        {
          "id": 7,
          "value": 0.0
        }
      ],
      "leftModuleId": 31,
      "rightModuleId": 32,
      "data": {
        "lissajous": 0,
        "external": 0
      },
      "pos": [
        13,
        2
      ]
    },
    {
      "id": 31,
      "plugin": "Fundamental",
      "version": "1.4.0",
      "model": "Scope",
      "params": [
        {
          "id": 0,
          "value": -1.0
        },
        {
          "id": 1,
          "value": -5.25000095
        },
        {
          "id": 2,
          "value": -1.0
        },
        {
          "id": 3,
          "value": 5.10000134
        },
        {
          "id": 4,
          "value": 10.1900005
        },
        {
          "id": 5,
          "value": 0.0
        },
        {
          "id": 6,
          "value": 0.0
        },
        {
          "id": 7,
          "value": 0.0
        }
      ],
      "rightModuleId": 30,
      "data": {
        "lissajous": 0,
        "external": 0
      },
      "pos": [
        0,
        2
      ]
    },
    {
      "id": 32,
      "plugin": "Fundamental",
      "version": "1.4.0",
      "model": "Scope",
      "params": [
        {
          "id": 0,
          "value": -1.0
        },
        {
          "id": 1,
          "value": -5.25000095
        },
        {
          "id": 2,
          "value": -1.0
        },
        {
          "id": 3,
          "value": 5.10000134
        },
        {
          "id": 4,
          "value": 10.1900005
        },
        {
          "id": 5,
          "value": 0.0
        },
        {
          "id": 6,
          "value": 0.0
        },
        {
          "id": 7,
          "value": 0.0
        }
      ],
      "leftModuleId": 30,
      "rightModuleId": 33,
      "data": {
        "lissajous": 0,
        "external": 0
      },
      "pos": [
        26,
        2
      ]
    },
    {
      "id": 33,
      "plugin": "Fundamental",
      "version": "1.4.0",
      "model": "Scope",
      "params": [
        {
          "id": 0,
          "value": -1.0
        },
        {
          "id": 1,
          "value": -5.25000095
        },
        {
          "id": 2,
          "value": -1.0
        },
        {
          "id": 3,
          "value": 5.10000134
        },
        {
          "id": 4,
          "value": 10.1900005
        },
        {
          "id": 5,
          "value": 0.0
        },
        {
          "id": 6,
          "value": 0.0
        },
        {
          "id": 7,
          "value": 0.0
        }
      ],
      "leftModuleId": 32,
      "rightModuleId": 34,
      "data": {
        "lissajous": 0,
        "external": 0
      },
      "pos": [
        39,
        2
      ]
    },
    {
      "id": 34,
      "plugin": "Fundamental",
      "version": "1.4.0",
      "model": "Scope",
      "params": [
        {
          "id": 0,
          "value": -1.0
        },
        {
          "id": 1,
          "value": -5.25000095
        },
        {
          "id": 2,
          "value": -1.0
        },
        {
          "id": 3,
          "value": 5.10000134
        },
        {
          "id": 4,
          "value": 10.1900005
        },
        {
          "id": 5,
          "value": 0.0
        },
        {
          "id": 6,
          "value": 0.0
        },
        {
          "id": 7,
          "value": 0.0
        }
      ],
      "leftModuleId": 33,
      "rightModuleId": 151,
      "data": {
        "lissajous": 0,
        "external": 0
      },
      "pos": [
        52,
        2
      ]
    },
    {
      "id": 130,
      "plugin": "ModularFungi",
      "version": "1.1.4",
      "model": "Blank16HP",
      "params": [],
      "leftModuleId": 17,
      "style": 1.0,
      "pos": [
        101,
        0
      ]
    },
    {
      "id": 131,
      "plugin": "ModularFungi",
      "version": "1.1.4",
      "model": "Blank16HP",
      "params": [],
      "leftModuleId": 28,
      "style": 1.0,
      "pos": [
        101,
        2
      ]
    },
    {
      "id": 132,
      "plugin": "Core",
      "version": "1.1.6",
      "model": "Notes",
      "params": [],
      "leftModuleId": 20,
      "text": "Generative cybernetic patch: Two free-running fast function generators are at the heart of the sound generation. They are phase-opposed to each other, hard-panned left and right and then filtered and delayed.\n\nThe heart of the patch is the modulation: the two functions' outputs are splitted and applied several weight, and fed to the dual neuron module. Then every possible modulation input is applied one of the multiple outputs (neuron and multiplier outputs).\n\nOutput sound is summed and shift-registered, then send into two dacs, whose outputs are used to vary the functions pitches.\n\nSee the scopes for more insights.\n ",
      "pos": [
        101,
        1
      ]
    },
    {
      "id": 151,
      "plugin": "Bidoo",
      "version": "1.1.28",
      "model": "Garcon",
      "params": [],
      "leftModuleId": 34,
      "rightModuleId": 27,
      "pos": [
        65,
        2
      ]
    }
  ],
  "cables": [
    {
      "id": 0,
      "outputModuleId": 3,
      "outputId": 3,
      "inputModuleId": 3,
      "inputId": 1,
      "color": "#c9b70e"
    },
    {
      "id": 1,
      "outputModuleId": 3,
      "outputId": 0,
      "inputModuleId": 2,
      "inputId": 0,
      "color": "#0c8e15"
    },
    {
      "id": 2,
      "outputModuleId": 2,
      "outputId": 0,
      "inputModuleId": 1,
      "inputId": 0,
      "color": "#c91847"
    },
    {
      "id": 4,
      "outputModuleId": 3,
      "outputId": 6,
      "inputModuleId": 3,
      "inputId": 5,
      "color": "#c9b70e"
    },
    {
      "id": 5,
      "outputModuleId": 3,
      "outputId": 4,
      "inputModuleId": 2,
      "inputId": 2,
      "color": "#0c8e15"
    },
    {
      "id": 6,
      "outputModuleId": 2,
      "outputId": 1,
      "inputModuleId": 1,
      "inputId": 2,
      "color": "#c91847"
    },
    {
      "id": 8,
      "outputModuleId": 2,
      "outputId": 2,
      "inputModuleId": 3,
      "inputId": 2,
      "color": "#c9b70e"
    },
    {
      "id": 9,
      "outputModuleId": 3,
      "outputId": 4,
      "inputModuleId": 2,
      "inputId": 4,
      "color": "#0c8e15"
    },
    {
      "id": 11,
      "outputModuleId": 3,
      "outputId": 0,
      "inputModuleId": 2,
      "inputId": 6,
      "color": "#0986ad"
    },
    {
      "id": 14,
      "outputModuleId": 2,
      "outputId": 3,
      "inputModuleId": 3,
      "inputId": 0,
      "color": "#c91847"
    },
    {
      "id": 15,
      "outputModuleId": 2,
      "outputId": 2,
      "inputModuleId": 3,
      "inputId": 4,
      "color": "#0986ad"
    },
    {
      "id": 18,
      "outputModuleId": 2,
      "outputId": 4,
      "inputModuleId": 2,
      "inputId": 1,
      "color": "#c91847"
    },
    {
      "id": 19,
      "outputModuleId": 2,
      "outputId": 5,
      "inputModuleId": 2,
      "inputId": 3,
      "color": "#0986ad"
    },
    {
      "id": 20,
      "outputModuleId": 2,
      "outputId": 2,
      "inputModuleId": 2,
      "inputId": 8,
      "color": "#c9b70e"
    },
    {
      "id": 21,
      "outputModuleId": 2,
      "outputId": 3,
      "inputModuleId": 2,
      "inputId": 10,
      "color": "#0c8e15"
    },
    {
      "id": 24,
      "outputModuleId": 2,
      "outputId": 0,
      "inputModuleId": 7,
      "inputId": 0,
      "color": "#0c8e15"
    },
    {
      "id": 25,
      "outputModuleId": 2,
      "outputId": 1,
      "inputModuleId": 7,
      "inputId": 3,
      "color": "#c91847"
    },
    {
      "id": 26,
      "outputModuleId": 2,
      "outputId": 2,
      "inputModuleId": 7,
      "inputId": 6,
      "color": "#0986ad"
    },
    {
      "id": 27,
      "outputModuleId": 2,
      "outputId": 3,
      "inputModuleId": 7,
      "inputId": 11,
      "color": "#c9b70e"
    },
    {
      "id": 28,
      "outputModuleId": 2,
      "outputId": 4,
      "inputModuleId": 7,
      "inputId": 14,
      "color": "#0c8e15"
    },
    {
      "id": 29,
      "outputModuleId": 2,
      "outputId": 5,
      "inputModuleId": 7,
      "inputId": 17,
      "color": "#c91847"
    },
    {
      "id": 13,
      "outputModuleId": 2,
      "outputId": 2,
      "inputModuleId": 8,
      "inputId": 0,
      "color": "#0c8e15"
    },
    {
      "id": 31,
      "outputModuleId": 7,
      "outputId": 4,
      "inputModuleId": 2,
      "inputId": 12,
      "color": "#c9b70e"
    },
    {
      "id": 33,
      "outputModuleId": 2,
      "outputId": 6,
      "inputModuleId": 8,
      "inputId": 1,
      "color": "#c91847"
    },
    {
      "id": 36,
      "outputModuleId": 3,
      "outputId": 10,
      "inputModuleId": 3,
      "inputId": 9,
      "color": "#0c8e15"
    },
    {
      "id": 37,
      "outputModuleId": 3,
      "outputId": 8,
      "inputModuleId": 2,
      "inputId": 13,
      "color": "#c91847"
    },
    {
      "id": 42,
      "outputModuleId": 2,
      "outputId": 6,
      "inputModuleId": 8,
      "inputId": 2,
      "color": "#0986ad"
    },
    {
      "id": 39,
      "outputModuleId": 2,
      "outputId": 6,
      "inputModuleId": 3,
      "inputId": 11,
      "color": "#c9b70e"
    },
    {
      "id": 43,
      "outputModuleId": 3,
      "outputId": 10,
      "inputModuleId": 9,
      "inputId": 0,
      "color": "#c9b70e"
    },
    {
      "id": 45,
      "outputModuleId": 9,
      "outputId": 0,
      "inputModuleId": 11,
      "inputId": 0,
      "color": "#0986ad"
    },
    {
      "id": 46,
      "outputModuleId": 9,
      "outputId": 1,
      "inputModuleId": 11,
      "inputId": 1,
      "color": "#c9b70e"
    },
    {
      "id": 47,
      "outputModuleId": 9,
      "outputId": 2,
      "inputModuleId": 11,
      "inputId": 2,
      "color": "#0c8e15"
    },
    {
      "id": 50,
      "outputModuleId": 9,
      "outputId": 3,
      "inputModuleId": 11,
      "inputId": 3,
      "color": "#0c8e15"
    },
    {
      "id": 51,
      "outputModuleId": 9,
      "outputId": 4,
      "inputModuleId": 11,
      "inputId": 4,
      "color": "#c91847"
    },
    {
      "id": 52,
      "outputModuleId": 9,
      "outputId": 5,
      "inputModuleId": 11,
      "inputId": 5,
      "color": "#0986ad"
    },
    {
      "id": 53,
      "outputModuleId": 9,
      "outputId": 6,
      "inputModuleId": 11,
      "inputId": 6,
      "color": "#c9b70e"
    },
    {
      "id": 54,
      "outputModuleId": 9,
      "outputId": 7,
      "inputModuleId": 11,
      "inputId": 7,
      "color": "#0c8e15"
    },
    {
      "id": 55,
      "outputModuleId": 9,
      "outputId": 0,
      "inputModuleId": 12,
      "inputId": 7,
      "color": "#c91847"
    },
    {
      "id": 56,
      "outputModuleId": 9,
      "outputId": 1,
      "inputModuleId": 12,
      "inputId": 0,
      "color": "#0986ad"
    },
    {
      "id": 57,
      "outputModuleId": 9,
      "outputId": 2,
      "inputModuleId": 12,
      "inputId": 1,
      "color": "#c9b70e"
    },
    {
      "id": 58,
      "outputModuleId": 9,
      "outputId": 3,
      "inputModuleId": 12,
      "inputId": 2,
      "color": "#c91847"
    },
    {
      "id": 59,
      "outputModuleId": 9,
      "outputId": 4,
      "inputModuleId": 12,
      "inputId": 3,
      "color": "#0986ad"
    },
    {
      "id": 60,
      "outputModuleId": 9,
      "outputId": 5,
      "inputModuleId": 12,
      "inputId": 4,
      "color": "#c9b70e"
    },
    {
      "id": 61,
      "outputModuleId": 9,
      "outputId": 6,
      "inputModuleId": 12,
      "inputId": 5,
      "color": "#0c8e15"
    },
    {
      "id": 62,
      "outputModuleId": 9,
      "outputId": 7,
      "inputModuleId": 12,
      "inputId": 6,
      "color": "#c91847"
    },
    {
      "id": 49,
      "outputModuleId": 8,
      "outputId": 2,
      "inputModuleId": 3,
      "inputId": 3,
      "color": "#c9b70e"
    },
    {
      "id": 12,
      "outputModuleId": 2,
      "outputId": 3,
      "inputModuleId": 8,
      "inputId": 7,
      "color": "#c9b70e"
    },
    {
      "id": 48,
      "outputModuleId": 11,
      "outputId": 0,
      "inputModuleId": 8,
      "inputId": 6,
      "color": "#c91847"
    },
    {
      "id": 63,
      "outputModuleId": 12,
      "outputId": 0,
      "inputModuleId": 8,
      "inputId": 3,
      "color": "#0986ad"
    },
    {
      "id": 64,
      "outputModuleId": 2,
      "outputId": 7,
      "inputModuleId": 3,
      "inputId": 10,
      "color": "#c9b70e"
    },
    {
      "id": 65,
      "outputModuleId": 11,
      "outputId": 0,
      "inputModuleId": 2,
      "inputId": 14,
      "color": "#0c8e15"
    },
    {
      "id": 68,
      "outputModuleId": 1,
      "outputId": 0,
      "inputModuleId": 13,
      "inputId": 0,
      "color": "#c9b70e"
    },
    {
      "id": 69,
      "outputModuleId": 1,
      "outputId": 1,
      "inputModuleId": 13,
      "inputId": 1,
      "color": "#0c8e15"
    },
    {
      "id": 73,
      "outputModuleId": 13,
      "outputId": 0,
      "inputModuleId": 15,
      "inputId": 0,
      "color": "#c91847"
    },
    {
      "id": 74,
      "outputModuleId": 13,
      "outputId": 1,
      "inputModuleId": 15,
      "inputId": 1,
      "color": "#0986ad"
    },
    {
      "id": 77,
      "outputModuleId": 2,
      "outputId": 6,
      "inputModuleId": 15,
      "inputId": 3,
      "color": "#c91847"
    },
    {
      "id": 78,
      "outputModuleId": 2,
      "outputId": 4,
      "inputModuleId": 15,
      "inputId": 6,
      "color": "#0986ad"
    },
    {
      "id": 79,
      "outputModuleId": 2,
      "outputId": 5,
      "inputModuleId": 15,
      "inputId": 5,
      "color": "#c9b70e"
    },
    {
      "id": 80,
      "outputModuleId": 2,
      "outputId": 3,
      "inputModuleId": 15,
      "inputId": 4,
      "color": "#0c8e15"
    },
    {
      "id": 76,
      "outputModuleId": 17,
      "outputId": 1,
      "inputModuleId": 6,
      "inputId": 1,
      "color": "#0c8e15"
    },
    {
      "id": 75,
      "outputModuleId": 17,
      "outputId": 0,
      "inputModuleId": 6,
      "inputId": 0,
      "color": "#c9b70e"
    },
    {
      "id": 81,
      "outputModuleId": 15,
      "outputId": 0,
      "inputModuleId": 17,
      "inputId": 5,
      "color": "#0986ad"
    },
    {
      "id": 82,
      "outputModuleId": 15,
      "outputId": 1,
      "inputModuleId": 17,
      "inputId": 6,
      "color": "#c9b70e"
    },
    {
      "id": 83,
      "outputModuleId": 3,
      "outputId": 6,
      "inputModuleId": 17,
      "inputId": 7,
      "color": "#0c8e15"
    },
    {
      "id": 87,
      "outputModuleId": 2,
      "outputId": 7,
      "inputModuleId": 18,
      "inputId": 0,
      "color": "#0c8e15"
    },
    {
      "id": 89,
      "outputModuleId": 17,
      "outputId": 0,
      "inputModuleId": 20,
      "inputId": 2,
      "color": "#0986ad"
    },
    {
      "id": 90,
      "outputModuleId": 17,
      "outputId": 1,
      "inputModuleId": 20,
      "inputId": 3,
      "color": "#c9b70e"
    },
    {
      "id": 91,
      "outputModuleId": 17,
      "outputId": 0,
      "inputModuleId": 26,
      "inputId": 0,
      "color": "#c91847"
    },
    {
      "id": 92,
      "outputModuleId": 17,
      "outputId": 1,
      "inputModuleId": 26,
      "inputId": 1,
      "color": "#0986ad"
    },
    {
      "id": 93,
      "outputModuleId": 9,
      "outputId": 0,
      "inputModuleId": 7,
      "inputId": 1,
      "color": "#0c8e15"
    },
    {
      "id": 94,
      "outputModuleId": 9,
      "outputId": 1,
      "inputModuleId": 7,
      "inputId": 4,
      "color": "#c91847"
    },
    {
      "id": 95,
      "outputModuleId": 9,
      "outputId": 2,
      "inputModuleId": 7,
      "inputId": 7,
      "color": "#0986ad"
    },
    {
      "id": 96,
      "outputModuleId": 9,
      "outputId": 3,
      "inputModuleId": 7,
      "inputId": 12,
      "color": "#c9b70e"
    },
    {
      "id": 97,
      "outputModuleId": 9,
      "outputId": 4,
      "inputModuleId": 7,
      "inputId": 15,
      "color": "#0c8e15"
    },
    {
      "id": 98,
      "outputModuleId": 9,
      "outputId": 5,
      "inputModuleId": 7,
      "inputId": 18,
      "color": "#c91847"
    },
    {
      "id": 99,
      "outputModuleId": 9,
      "outputId": 6,
      "inputModuleId": 7,
      "inputId": 23,
      "color": "#0986ad"
    },
    {
      "id": 100,
      "outputModuleId": 9,
      "outputId": 7,
      "inputModuleId": 7,
      "inputId": 26,
      "color": "#c9b70e"
    },
    {
      "id": 101,
      "outputModuleId": 2,
      "outputId": 2,
      "inputModuleId": 7,
      "inputId": 9,
      "color": "#0c8e15"
    },
    {
      "id": 102,
      "outputModuleId": 2,
      "outputId": 4,
      "inputModuleId": 7,
      "inputId": 21,
      "color": "#c91847"
    },
    {
      "id": 103,
      "outputModuleId": 2,
      "outputId": 7,
      "inputModuleId": 7,
      "inputId": 20,
      "color": "#0986ad"
    },
    {
      "id": 104,
      "outputModuleId": 2,
      "outputId": 0,
      "inputModuleId": 7,
      "inputId": 10,
      "color": "#c9b70e"
    },
    {
      "id": 107,
      "outputModuleId": 8,
      "outputId": 1,
      "inputModuleId": 7,
      "inputId": 24,
      "color": "#0986ad"
    },
    {
      "id": 108,
      "outputModuleId": 8,
      "outputId": 2,
      "inputModuleId": 7,
      "inputId": 27,
      "color": "#c9b70e"
    },
    {
      "id": 109,
      "outputModuleId": 2,
      "outputId": 6,
      "inputModuleId": 7,
      "inputId": 5,
      "color": "#0c8e15"
    },
    {
      "id": 110,
      "outputModuleId": 2,
      "outputId": 2,
      "inputModuleId": 7,
      "inputId": 19,
      "color": "#c91847"
    },
    {
      "id": 111,
      "outputModuleId": 17,
      "outputId": 0,
      "inputModuleId": 28,
      "inputId": 0,
      "color": "#0986ad"
    },
    {
      "id": 112,
      "outputModuleId": 17,
      "outputId": 1,
      "inputModuleId": 28,
      "inputId": 1,
      "color": "#c9b70e"
    },
    {
      "id": 113,
      "outputModuleId": 17,
      "outputId": 0,
      "inputModuleId": 27,
      "inputId": 0,
      "color": "#0c8e15"
    },
    {
      "id": 114,
      "outputModuleId": 17,
      "outputId": 1,
      "inputModuleId": 27,
      "inputId": 1,
      "color": "#c91847"
    },
    {
      "id": 32,
      "outputModuleId": 8,
      "outputId": 1,
      "inputModuleId": 3,
      "inputId": 7,
      "color": "#0c8e15"
    },
    {
      "id": 10,
      "outputModuleId": 2,
      "outputId": 3,
      "inputModuleId": 3,
      "inputId": 6,
      "color": "#c91847"
    },
    {
      "id": 118,
      "outputModuleId": 7,
      "outputId": 4,
      "inputModuleId": 30,
      "inputId": 0,
      "color": "#c91847"
    },
    {
      "id": 119,
      "outputModuleId": 7,
      "outputId": 4,
      "inputModuleId": 15,
      "inputId": 2,
      "color": "#0986ad"
    },
    {
      "id": 120,
      "outputModuleId": 15,
      "outputId": 2,
      "inputModuleId": 9,
      "inputId": 1,
      "color": "#0986ad"
    },
    {
      "id": 121,
      "outputModuleId": 2,
      "outputId": 0,
      "inputModuleId": 31,
      "inputId": 0,
      "color": "#c9b70e"
    },
    {
      "id": 122,
      "outputModuleId": 2,
      "outputId": 1,
      "inputModuleId": 31,
      "inputId": 1,
      "color": "#0c8e15"
    },
    {
      "id": 123,
      "outputModuleId": 2,
      "outputId": 2,
      "inputModuleId": 32,
      "inputId": 0,
      "color": "#c91847"
    },
    {
      "id": 124,
      "outputModuleId": 2,
      "outputId": 3,
      "inputModuleId": 32,
      "inputId": 1,
      "color": "#0986ad"
    },
    {
      "id": 125,
      "outputModuleId": 2,
      "outputId": 4,
      "inputModuleId": 33,
      "inputId": 0,
      "color": "#c9b70e"
    },
    {
      "id": 126,
      "outputModuleId": 2,
      "outputId": 5,
      "inputModuleId": 33,
      "inputId": 1,
      "color": "#0c8e15"
    },
    {
      "id": 127,
      "outputModuleId": 2,
      "outputId": 6,
      "inputModuleId": 34,
      "inputId": 0,
      "color": "#c91847"
    },
    {
      "id": 128,
      "outputModuleId": 2,
      "outputId": 7,
      "inputModuleId": 34,
      "inputId": 1,
      "color": "#0986ad"
    },
    {
      "id": 129,
      "outputModuleId": 7,
      "outputId": 5,
      "inputModuleId": 7,
      "inputId": 8,
      "color": "#0986ad"
    },
    {
      "id": 130,
      "outputModuleId": 7,
      "outputId": 6,
      "inputModuleId": 7,
      "inputId": 13,
      "color": "#c9b70e"
    },
    {
      "id": 131,
      "outputModuleId": 7,
      "outputId": 7,
      "inputModuleId": 7,
      "inputId": 16,
      "color": "#0c8e15"
    },
    {
      "id": 132,
      "outputModuleId": 7,
      "outputId": 3,
      "inputModuleId": 7,
      "inputId": 2,
      "color": "#c91847"
    },
    {
      "id": 133,
      "outputModuleId": 7,
      "outputId": 2,
      "inputModuleId": 2,
      "inputId": 15,
      "color": "#0986ad"
    },
    {
      "id": 134,
      "outputModuleId": 7,
      "outputId": 6,
      "inputModuleId": 18,
      "inputId": 1,
      "color": "#c9b70e"
    },
    {
      "id": 135,
      "outputModuleId": 7,
      "outputId": 3,
      "inputModuleId": 1,
      "inputId": 1,
      "color": "#0c8e15"
    },
    {
      "id": 136,
      "outputModuleId": 7,
      "outputId": 6,
      "inputModuleId": 1,
      "inputId": 3,
      "color": "#c91847"
    },
    {
      "id": 88,
      "outputModuleId": 18,
      "outputId": 0,
      "inputModuleId": 17,
      "inputId": 2,
      "color": "#c91847"
    },
    {
      "id": 901,
      "outputModuleId": 8,
      "outputId": 7,
      "inputModuleId": 151,
      "inputId": 0,
      "color": "#c91847"
    },
    {
      "id": 902,
      "outputModuleId": 17,
      "outputId": 0,
      "inputModuleId": 8,
      "inputId": 21,
      "color": "#0986ad"
    },
    {
      "id": 903,
      "outputModuleId": 17,
      "outputId": 1,
      "inputModuleId": 8,
      "inputId": 22,
      "color": "#c9b70e"
    }
  ]
}